_________________________  Visit us at _________________________
  
http://p2pdl.com  ____________________________  http://p2pdl.com

 
http://imgr.us/images/znz4u0ffw1k45p07zsy1.jpg


Taylor Swift - 22 2013 M4A+MP4 (1080p) x264 [VX]


                               1080p Full HD MP4 Video
                                        +
                               128 Kbps/VBR M4A Audio

General
Complete name                  : Taylor Swift - 22 (1080p) x264 [VX].mp4
Format                         : MPEG-4
Format profile                 : Base Media / Version 2
Codec ID                       : mp42
File size                      : 35.7 MiB
Duration                       : 4mn 3s
Overall bit rate mode          : Variable
Overall bit rate               : 1 233 Kbps

Video
ID                             : 1
Format                         : AVC
Format/Info                    : Advanced Video Codec
Format profile                 : High@L4.0
Width                          : 1 920 pixels
Height                         : 1 080 pixels
Display aspect ratio           : 16:9
Frame rate mode                : Variable
Frame rate                     : 23.976 fps
Bit depth                      : 8 bits
Scan type                      : Progressive
Bits/(Pixel*Frame)             : 0.022
Stream size                    : 32.0 MiB (90%)
Writing library                : x264 core 129

Audio
ID                             : 2
Format                         : AAC
Format/Info                    : Advanced Audio Codec
Bit rate mode                  : Variable
Bit rate                       : 124 Kbps
Channel(s)                     : 2 channels
Channel positions              : Front: L R
Sampling rate                  : 48.0 KHz
Stream size                    : 3.58 MiB (10%)

Subtitles                      : No

Screens:
 
http://imgr.us/images/9zdo9t8axddh4862t.jpg
------------------------------------------------------------------------

Notes:

* Recommended to use latest version VLC Media Player.
* Install shark007 codecs in case of any kind of problem in playback (For non-VLC Media Player users).
* Alternatively, install Core AVC codecs, the fastest decoder that there is coupled with Community Center Codec Pack and play on Windows Media Player Classic.

Encoder Notes: Looking For Early Access To Anything You Can Provide DVDScr, R5, DVDRips, BluRay, Direct Audio, Early Music
Releases, Seedboxes, Links, Dedicated Servers anything u can provide, Advance / Promo CDs/DVDs. If You Got anything to
offer contact me at "prg@hush.com"